<svg width="100%" height="100%" id="svg" viewBox="0 0 1440 590" xmlns="http://www.w3.org/2000/svg" class="transition duration-300 ease-in-out delay-150"><defs><linearGradient id="gradient" x1="0%" y1="50%" x2="100%" y2="50%"><stop offset="5%" stop-color="#b4e3ed"></stop><stop offset="95%" stop-color="#8ED1FC"></stop></linearGradient></defs><path d="M 0,600 L 0,112 C 114.89952153110048,119.58851674641147 229.79904306220095,127.17703349282296 319,124 C 408.20095693779905,120.82296650717704 471.7033492822967,106.88038277511963 550,93 C 628.2966507177033,79.11961722488037 721.3875598086124,65.30143540669856 825,84 C 928.6124401913876,102.69856459330144 1042.7464114832537,153.91387559808612 1147,164 C 1251.2535885167463,174.08612440191388 1345.6267942583731,143.04306220095694 1440,112 L 1440,600 L 0,600 Z" stroke="none" stroke-width="0" fill="url(#gradient)" fill-opacity="0.4" class="transition-all duration-300 ease-in-out delay-150 path-0"></path><defs><linearGradient id="gradient" x1="0%" y1="50%" x2="100%" y2="50%"><stop offset="5%" stop-color="#b4e3ed"></stop><stop offset="95%" stop-color="#8ED1FC"></stop></linearGradient></defs><path d="M 0,600 L 0,262 C 86.1531100478469,287.1483253588517 172.3062200956938,312.29665071770336 266,307 C 359.6937799043062,301.70334928229664 460.92822966507174,265.9617224880383 556,266 C 651.0717703349283,266.0382775119617 739.9808612440191,301.8564593301436 847,317 C 954.0191387559809,332.1435406698564 1079.148325358852,326.6124401913876 1181,314 C 1282.851674641148,301.3875598086124 1361.425837320574,281.6937799043062 1440,262 L 1440,600 L 0,600 Z" stroke="none" stroke-width="0" fill="url(#gradient)" fill-opacity="0.53" class="transition-all duration-300 ease-in-out delay-150 path-1"></path><defs><linearGradient id="gradient" x1="0%" y1="50%" x2="100%" y2="50%"><stop offset="5%" stop-color="#b4e3ed"></stop><stop offset="95%" stop-color="#8ED1FC"></stop></linearGradient></defs><path d="M 0,600 L 0,412 C 79.52153110047843,431.1961722488038 159.04306220095685,450.39234449760767 254,456 C 348.95693779904315,461.60765550239233 459.3492822966508,453.6267942583732 567,438 C 674.6507177033492,422.3732057416268 779.5598086124401,399.10047846889955 882,401 C 984.4401913875599,402.89952153110045 1084.4114832535886,429.9712918660287 1177,436 C 1269.5885167464114,442.0287081339713 1354.7942583732056,427.0143540669857 1440,412 L 1440,600 L 0,600 Z" stroke="none" stroke-width="0" fill="url(#gradient)" fill-opacity="1" class="transition-all duration-300 ease-in-out delay-150 path-2"></path></svg>